<svg width="219" height="34" viewBox="0 0 219 34" fill="none" xmlns="http://www.w3.org/2000/svg">
<path d="M41.32 10.1H51.34V12.8H44.42V16.18H50.94V18.88H44.42V22.3H51.34V25H41.32V10.1ZM55.8373 19.52L51.9973 14.08H55.4773L57.5973 17.2L59.7173 14.08H63.1973L59.3573 19.52L63.1573 25H59.6973L57.5973 21.84L55.4973 25H52.0173L55.8373 19.52ZM64.518 14.08H67.318V15.22C67.6913 14.78 68.1646 14.44 68.738 14.2C69.3113 13.96 69.9513 13.84 70.658 13.84C71.6846 13.84 72.618 14.0933 73.458 14.6C74.3113 15.1067 74.9846 15.7933 75.478 16.66C75.9713 17.5267 76.218 18.4867 76.218 19.54C76.218 20.5933 75.9713 21.5533 75.478 22.42C74.998 23.2867 74.3313 23.9733 73.478 24.48C72.638 24.9867 71.6913 25.24 70.638 25.24C70.0246 25.24 69.4446 25.1467 68.898 24.96C68.3646 24.7733 67.9046 24.5067 67.518 24.16V29H64.518V14.08ZM67.518 19.54C67.518 20.4333 67.7713 21.16 68.278 21.72C68.798 22.2667 69.4646 22.54 70.278 22.54C71.1046 22.54 71.7846 22.26 72.318 21.7C72.8513 21.14 73.118 20.42 73.118 19.54C73.118 18.6733 72.8513 17.96 72.318 17.4C71.7846 16.8267 71.1046 16.54 70.278 16.54C69.4646 16.54 68.798 16.82 68.278 17.38C67.7713 17.94 67.518 18.66 67.518 19.54ZM77.975 9.86H80.975V25H77.975V9.86ZM88.5903 25.24C87.5236 25.24 86.537 24.9933 85.6303 24.5C84.737 24.0067 84.0303 23.3267 83.5103 22.46C82.9903 21.5933 82.7303 20.62 82.7303 19.54C82.7303 18.46 82.9903 17.4867 83.5103 16.62C84.0303 15.7533 84.737 15.0733 85.6303 14.58C86.537 14.0867 87.5236 13.84 88.5903 13.84C89.657 13.84 90.637 14.0867 91.5303 14.58C92.4236 15.0733 93.1303 15.7533 93.6503 16.62C94.1703 17.4867 94.4303 18.46 94.4303 19.54C94.4303 20.62 94.1703 21.5933 93.6503 22.46C93.1303 23.3267 92.4236 24.0067 91.5303 24.5C90.637 24.9933 89.657 25.24 88.5903 25.24ZM85.8303 19.54C85.8303 20.42 86.0836 21.14 86.5903 21.7C87.1103 22.26 87.777 22.54 88.5903 22.54C89.4036 22.54 90.0636 22.26 90.5703 21.7C91.077 21.14 91.3303 20.42 91.3303 19.54C91.3303 18.66 91.0703 17.94 90.5503 17.38C90.0436 16.82 89.3903 16.54 88.5903 16.54C87.777 16.54 87.1103 16.82 86.5903 17.38C86.0836 17.94 85.8303 18.66 85.8303 19.54ZM96.1977 14.08H98.9977V15.72C99.2643 15.08 99.6443 14.6267 100.138 14.36C100.631 14.0933 101.238 13.96 101.958 13.96H102.598V16.56H101.658C100.911 16.56 100.311 16.7867 99.8577 17.24C99.4177 17.6933 99.1977 18.32 99.1977 19.12V25H96.1977V14.08ZM109.173 25.24C108.053 25.24 107.059 24.9867 106.193 24.48C105.326 23.9733 104.653 23.2867 104.173 22.42C103.706 21.54 103.472 20.5733 103.472 19.52C103.472 18.4533 103.713 17.4867 104.193 16.62C104.673 15.7533 105.333 15.0733 106.173 14.58C107.013 14.0867 107.946 13.84 108.973 13.84C110.093 13.84 111.059 14.0733 111.873 14.54C112.686 15.0067 113.306 15.6533 113.733 16.48C114.159 17.2933 114.373 18.2067 114.373 19.22C114.373 19.7133 114.326 20.1 114.233 20.38H106.593C106.686 21.0733 106.959 21.6267 107.413 22.04C107.879 22.44 108.479 22.64 109.213 22.64C109.733 22.64 110.186 22.5333 110.573 22.32C110.959 22.1067 111.259 21.8133 111.473 21.44L113.873 22.58C113.539 23.38 112.946 24.0267 112.093 24.52C111.253 25 110.279 25.24 109.173 25.24ZM111.193 18.18C111.126 17.5933 110.893 17.1267 110.493 16.78C110.093 16.42 109.586 16.24 108.973 16.24C108.373 16.24 107.866 16.4067 107.453 16.74C107.053 17.0733 106.786 17.5533 106.653 18.18H111.193ZM123.439 25.24C122.026 25.24 120.746 24.9067 119.599 24.24C118.452 23.5733 117.552 22.6533 116.899 21.48C116.246 20.3067 115.919 18.9933 115.919 17.54C115.919 16.0867 116.246 14.7733 116.899 13.6C117.552 12.4267 118.446 11.5133 119.579 10.86C120.726 10.1933 122.012 9.86 123.439 9.86C124.479 9.86 125.432 10.04 126.299 10.4C127.179 10.7467 127.919 11.22 128.519 11.82C129.119 12.42 129.552 13.0933 129.819 13.84L127.079 15.16C126.812 14.4133 126.359 13.8133 125.719 13.36C125.079 12.8933 124.319 12.66 123.439 12.66C122.572 12.66 121.799 12.8667 121.119 13.28C120.452 13.68 119.932 14.2533 119.559 15C119.199 15.7333 119.019 16.58 119.019 17.54C119.019 18.5 119.199 19.3533 119.559 20.1C119.932 20.8333 120.452 21.4067 121.119 21.82C121.799 22.2333 122.572 22.44 123.439 22.44C124.319 22.44 125.079 22.2133 125.719 21.76C126.359 21.2933 126.812 20.6867 127.079 19.94L129.819 21.26C129.552 22.0067 129.119 22.68 128.519 23.28C127.919 23.88 127.179 24.36 126.299 24.72C125.432 25.0667 124.479 25.24 123.439 25.24ZM134.773 25.24C133.586 25.24 132.653 24.96 131.973 24.4C131.293 23.84 130.953 23.0667 130.953 22.08C130.953 21.1467 131.273 20.3867 131.913 19.8C132.566 19.2 133.54 18.7933 134.833 18.58L137.853 18.1V17.8C137.853 17.3867 137.686 17.04 137.353 16.76C137.02 16.48 136.58 16.34 136.033 16.34C135.5 16.34 135.026 16.4867 134.613 16.78C134.213 17.06 133.92 17.4467 133.733 17.94L131.333 16.8C131.653 15.8933 132.246 15.1733 133.113 14.64C133.993 14.1067 135.013 13.84 136.173 13.84C137.08 13.84 137.886 14.0067 138.593 14.34C139.313 14.6733 139.866 15.14 140.253 15.74C140.653 16.34 140.853 17.0267 140.853 17.8V25H138.053V23.98C137.626 24.4067 137.146 24.7267 136.613 24.94C136.08 25.14 135.466 25.24 134.773 25.24ZM134.053 21.98C134.053 22.3133 134.173 22.5733 134.413 22.76C134.666 22.9467 134.986 23.04 135.373 23.04C136.106 23.04 136.7 22.8133 137.153 22.36C137.62 21.8933 137.853 21.32 137.853 20.64V20.3L135.373 20.74C134.933 20.82 134.6 20.96 134.373 21.16C134.16 21.36 134.053 21.6333 134.053 21.98ZM143.053 14.08H145.853V15.72C146.12 15.08 146.5 14.6267 146.993 14.36C147.486 14.0933 148.093 13.96 148.813 13.96H149.453V16.56H148.513C147.766 16.56 147.166 16.7867 146.713 17.24C146.273 17.6933 146.053 18.32 146.053 19.12V25H143.053V14.08ZM156.028 25.24C154.908 25.24 153.915 24.9867 153.048 24.48C152.181 23.9733 151.508 23.2867 151.028 22.42C150.561 21.54 150.328 20.5733 150.328 19.52C150.328 18.4533 150.568 17.4867 151.048 16.62C151.528 15.7533 152.188 15.0733 153.028 14.58C153.868 14.0867 154.801 13.84 155.828 13.84C156.948 13.84 157.915 14.0733 158.728 14.54C159.541 15.0067 160.161 15.6533 160.588 16.48C161.015 17.2933 161.228 18.2067 161.228 19.22C161.228 19.7133 161.181 20.1 161.088 20.38H153.448C153.541 21.0733 153.815 21.6267 154.268 22.04C154.735 22.44 155.335 22.64 156.068 22.64C156.588 22.64 157.041 22.5333 157.428 22.32C157.815 22.1067 158.115 21.8133 158.328 21.44L160.728 22.58C160.395 23.38 159.801 24.0267 158.948 24.52C158.108 25 157.135 25.24 156.028 25.24ZM158.048 18.18C157.981 17.5933 157.748 17.1267 157.348 16.78C156.948 16.42 156.441 16.24 155.828 16.24C155.228 16.24 154.721 16.4067 154.308 16.74C153.908 17.0733 153.641 17.5533 153.508 18.18H158.048ZM168.255 25.24C167.135 25.24 166.141 24.9867 165.275 24.48C164.408 23.9733 163.735 23.2867 163.255 22.42C162.788 21.54 162.555 20.5733 162.555 19.52C162.555 18.4533 162.795 17.4867 163.275 16.62C163.755 15.7533 164.415 15.0733 165.255 14.58C166.095 14.0867 167.028 13.84 168.055 13.84C169.175 13.84 170.141 14.0733 170.955 14.54C171.768 15.0067 172.388 15.6533 172.815 16.48C173.241 17.2933 173.455 18.2067 173.455 19.22C173.455 19.7133 173.408 20.1 173.315 20.38H165.675C165.768 21.0733 166.041 21.6267 166.495 22.04C166.961 22.44 167.561 22.64 168.295 22.64C168.815 22.64 169.268 22.5333 169.655 22.32C170.041 22.1067 170.341 21.8133 170.555 21.44L172.955 22.58C172.621 23.38 172.028 24.0267 171.175 24.52C170.335 25 169.361 25.24 168.255 25.24ZM170.275 18.18C170.208 17.5933 169.975 17.1267 169.575 16.78C169.175 16.42 168.668 16.24 168.055 16.24C167.455 16.24 166.948 16.4067 166.535 16.74C166.135 17.0733 165.868 17.5533 165.735 18.18H170.275ZM175.221 14.08H178.021V15.72C178.288 15.08 178.668 14.6267 179.161 14.36C179.654 14.0933 180.261 13.96 180.981 13.96H181.621V16.56H180.681C179.934 16.56 179.334 16.7867 178.881 17.24C178.441 17.6933 178.221 18.32 178.221 19.12V25H175.221V14.08ZM187.176 25.22C186.029 25.22 185.023 24.96 184.156 24.44C183.303 23.9067 182.709 23.18 182.376 22.26L184.536 21.14C184.829 21.7 185.209 22.14 185.676 22.46C186.143 22.7667 186.663 22.92 187.236 22.92C187.676 22.92 188.016 22.8333 188.256 22.66C188.496 22.4867 188.616 22.2467 188.616 21.94C188.616 21.7 188.523 21.4933 188.336 21.32C188.149 21.1467 187.869 21.0267 187.496 20.96L185.636 20.6C184.729 20.3867 184.016 19.9867 183.496 19.4C182.989 18.8 182.736 18.0933 182.736 17.28C182.736 16.6 182.909 16 183.256 15.48C183.616 14.96 184.116 14.56 184.756 14.28C185.409 13.9867 186.156 13.84 186.996 13.84C188.009 13.84 188.903 14.08 189.676 14.56C190.449 15.0267 191.016 15.6867 191.376 16.54L189.196 17.66C189.023 17.2333 188.729 16.8933 188.316 16.64C187.903 16.3733 187.443 16.24 186.936 16.24C186.523 16.24 186.203 16.32 185.976 16.48C185.749 16.64 185.636 16.86 185.636 17.14C185.636 17.3667 185.729 17.5667 185.916 17.74C186.116 17.9 186.429 18.0333 186.856 18.14L188.596 18.5C189.529 18.7533 190.249 19.1667 190.756 19.74C191.263 20.3 191.516 20.98 191.516 21.78C191.516 22.46 191.336 23.06 190.976 23.58C190.616 24.1 190.109 24.5067 189.456 24.8C188.803 25.08 188.043 25.22 187.176 25.22ZM196.229 25C195.762 25 195.369 24.84 195.049 24.52C194.729 24.2 194.569 23.8067 194.569 23.34C194.569 22.8733 194.729 22.4867 195.049 22.18C195.369 21.86 195.762 21.7 196.229 21.7C196.696 21.7 197.082 21.86 197.389 22.18C197.709 22.4867 197.869 22.8733 197.869 23.34C197.869 23.82 197.716 24.22 197.409 24.54C197.102 24.8467 196.709 25 196.229 25ZM201.393 14.08H204.393V25H201.393V14.08ZM201.213 11C201.213 10.4533 201.36 10.04 201.653 9.76C201.946 9.46667 202.36 9.32 202.893 9.32C203.44 9.32 203.853 9.46667 204.133 9.76C204.426 10.04 204.573 10.4533 204.573 11C204.573 11.5467 204.426 11.9667 204.133 12.26C203.853 12.54 203.44 12.68 202.893 12.68C202.36 12.68 201.946 12.5333 201.653 12.24C201.36 11.9467 201.213 11.5333 201.213 11ZM212.008 25.24C210.942 25.24 209.955 24.9933 209.048 24.5C208.155 24.0067 207.448 23.3267 206.928 22.46C206.408 21.5933 206.148 20.62 206.148 19.54C206.148 18.46 206.408 17.4867 206.928 16.62C207.448 15.7533 208.155 15.0733 209.048 14.58C209.955 14.0867 210.942 13.84 212.008 13.84C213.075 13.84 214.055 14.0867 214.948 14.58C215.842 15.0733 216.548 15.7533 217.068 16.62C217.588 17.4867 217.848 18.46 217.848 19.54C217.848 20.62 217.588 21.5933 217.068 22.46C216.548 23.3267 215.842 24.0067 214.948 24.5C214.055 24.9933 213.075 25.24 212.008 25.24ZM209.248 19.54C209.248 20.42 209.502 21.14 210.008 21.7C210.528 22.26 211.195 22.54 212.008 22.54C212.822 22.54 213.482 22.26 213.988 21.7C214.495 21.14 214.748 20.42 214.748 19.54C214.748 18.66 214.488 17.94 213.968 17.38C213.462 16.82 212.808 16.54 212.008 16.54C211.195 16.54 210.528 16.82 210.008 17.38C209.502 17.94 209.248 18.66 209.248 19.54Z" fill="#17001B"/>
<g clip-path="url(#clip0_192_1344)">
<path d="M21.8546 13.2704H12.1448C11.9046 13.2704 11.6743 13.175 11.5045 13.0052C11.3347 12.8353 11.2393 12.605 11.2393 12.3648V8.71491C11.2399 8.06731 11.4974 7.44641 11.9554 6.98848C12.4133 6.53055 13.0342 6.27301 13.6818 6.27237H20.3224C20.97 6.27301 21.5909 6.53055 22.0489 6.98848C22.5068 7.44641 22.7643 8.06731 22.765 8.71491V12.3648C22.765 12.4842 22.7414 12.6023 22.6956 12.7125C22.6498 12.8227 22.5826 12.9227 22.498 13.0069C22.4134 13.091 22.313 13.1576 22.2026 13.2028C22.0922 13.2481 21.9739 13.271 21.8546 13.2704ZM13.0503 11.4593H20.9491V8.71491C20.9491 8.54744 20.8825 8.38682 20.7641 8.2684C20.6457 8.14998 20.4851 8.08345 20.3176 8.08345H13.677C13.5095 8.08345 13.3489 8.14998 13.2305 8.2684C13.112 8.38682 13.0455 8.54744 13.0455 8.71491L13.0503 11.4593Z" fill="#676E87"/>
<path d="M17 34C7.63232 34 0 26.3735 0 17C0 7.62646 7.63232 0 17 0C26.3677 0 34 7.63232 34 17C34 26.3677 26.3735 34 17 34ZM17 1.75644C8.59485 1.75644 1.75644 8.59485 1.75644 17C1.75644 25.4052 8.59485 32.2436 17 32.2436C25.4052 32.2436 32.2436 25.4052 32.2436 17C32.2436 8.59485 25.4052 1.75644 17 1.75644Z" fill="#272A33"/>
<path d="M24.9661 10.5538H9.03227C8.26409 10.5538 7.64136 11.1765 7.64136 11.9447V23.2579C7.64136 24.0261 8.26409 24.6488 9.03227 24.6488H24.9661C25.7343 24.6488 26.3571 24.0261 26.3571 23.2579V11.9447C26.3571 11.1765 25.7343 10.5538 24.9661 10.5538Z" fill="#E49634"/>
<path d="M24.9688 10.5538H21.3467C21.7156 10.5538 22.0694 10.7003 22.3302 10.9612C22.591 11.222 22.7376 11.5758 22.7376 11.9447V23.2579C22.7376 23.6268 22.591 23.9806 22.3302 24.2414C22.0694 24.5023 21.7156 24.6488 21.3467 24.6488H24.9688C25.3377 24.6488 25.6915 24.5023 25.9524 24.2414C26.2132 23.9806 26.3597 23.6268 26.3597 23.2579V11.9447C26.3597 11.5758 26.2132 11.222 25.9524 10.9612C25.6915 10.7003 25.3377 10.5538 24.9688 10.5538Z" fill="#D67F12"/>
<path d="M26.3583 14.7832L17.9198 18.9934C17.6295 19.1194 17.3163 19.1844 16.9998 19.1844C16.6833 19.1844 16.3701 19.1194 16.0798 18.9934L7.64136 14.7832V11.9447C7.64136 11.576 7.78773 11.2224 8.04832 10.9616C8.3089 10.7008 8.66238 10.5541 9.03106 10.5538H24.9686C25.3375 10.5538 25.6912 10.7003 25.9521 10.9612C26.2129 11.222 26.3595 11.5758 26.3595 11.9447L26.3583 14.7832Z" fill="#C97306"/>
<path d="M25.4409 10.6383C25.2894 10.5824 25.1291 10.5538 24.9676 10.5538H21.3467C21.7156 10.5538 22.0694 10.7003 22.3302 10.9612C22.591 11.222 22.7376 11.5758 22.7376 11.9447V16.5907L26.3597 14.7796V11.9447C26.3597 11.6588 26.2714 11.38 26.107 11.1462C25.9425 10.9123 25.7099 10.735 25.4409 10.6383Z" fill="#C97306"/>
<path d="M18.0467 17.2922H15.9519C15.4851 17.2922 15.1067 17.6706 15.1067 18.1374V20.2322C15.1067 20.699 15.4851 21.0774 15.9519 21.0774H18.0467C18.5135 21.0774 18.8918 20.699 18.8918 20.2322V18.1374C18.8918 17.6706 18.5135 17.2922 18.0467 17.2922Z" fill="#676E87"/>
<path d="M18.048 17.2922H16.4724C16.6966 17.2922 16.9115 17.3813 17.07 17.5398C17.2285 17.6983 17.3176 17.9133 17.3176 18.1374V20.2322C17.3176 20.4564 17.2285 20.6713 17.07 20.8298C16.9115 20.9883 16.6966 21.0774 16.4724 21.0774H18.048C18.2722 21.0774 18.4872 20.9883 18.6457 20.8298C18.8042 20.6713 18.8932 20.4564 18.8932 20.2322V18.1374C18.8932 17.9133 18.8042 17.6983 18.6457 17.5398C18.4872 17.3813 18.2722 17.2922 18.048 17.2922Z" fill="#595F74"/>
<path d="M27.2629 23.2579V11.9447C27.2629 11.3363 27.0212 10.7528 26.591 10.3226C26.1608 9.89236 25.5773 9.65066 24.9688 9.65066H22.7605V8.71735C22.7599 8.06975 22.5023 7.44885 22.0444 6.99092C21.5865 6.53299 20.9656 6.27545 20.318 6.27481H13.6774C13.0298 6.27545 12.4089 6.53299 11.9509 6.99092C11.493 7.44885 11.2355 8.06975 11.2348 8.71735V9.65066H9.03134C8.42292 9.65066 7.83943 9.89236 7.40921 10.3226C6.979 10.7528 6.7373 11.3363 6.7373 11.9447V23.2579C6.7373 23.8663 6.979 24.4498 7.40921 24.88C7.83943 25.3103 8.42292 25.5519 9.03134 25.5519H24.9688C25.5773 25.5519 26.1608 25.3103 26.591 24.88C27.0212 24.4498 27.2629 23.8663 27.2629 23.2579ZM13.0507 8.71494C13.0507 8.54747 13.1173 8.38685 13.2357 8.26843C13.3541 8.15001 13.5147 8.08348 13.6822 8.08348H20.3228C20.4057 8.08348 20.4879 8.09981 20.5645 8.13154C20.6411 8.16328 20.7107 8.20979 20.7693 8.26843C20.828 8.32706 20.8745 8.39668 20.9062 8.47329C20.9379 8.5499 20.9543 8.63201 20.9543 8.71494V9.64825H13.0507V8.71494ZM8.54838 11.9447C8.54838 11.8166 8.59927 11.6938 8.68984 11.6032C8.78041 11.5126 8.90325 11.4617 9.03134 11.4617H24.9688C25.0969 11.4617 25.2198 11.5126 25.3103 11.6032C25.4009 11.6938 25.4518 11.8166 25.4518 11.9447V14.223L19.5139 17.186C19.3554 16.941 19.1382 16.7395 18.8819 16.5999C18.6257 16.4603 18.3387 16.387 18.0469 16.3867H15.9521C15.6603 16.387 15.3732 16.4603 15.117 16.5999C14.8608 16.7395 14.6436 16.941 14.4851 17.186L8.54838 14.223V11.9447ZM17.9889 18.1978V20.1718H16.0124V18.1978H17.9889ZM8.54838 23.2579V16.2466L14.2026 19.0683V20.2322C14.2032 20.6963 14.3879 21.1412 14.7161 21.4694C15.0442 21.7976 15.4892 21.9823 15.9533 21.9829H18.0493C18.5134 21.9823 18.9584 21.7976 19.2865 21.4694C19.6147 21.1412 19.7994 20.6963 19.8 20.2322V19.0683L25.4518 16.2466V23.2579C25.4518 23.386 25.4009 23.5088 25.3103 23.5994C25.2198 23.69 25.0969 23.7409 24.9688 23.7409H9.03134C8.90325 23.7409 8.78041 23.69 8.68984 23.5994C8.59927 23.5088 8.54838 23.386 8.54838 23.2579Z" fill="#272A33"/>
</g>
<defs>
<clipPath id="clip0_192_1344">
<rect width="34" height="34" fill="white"/>
</clipPath>
</defs>
</svg>
